<svg xmlns="http://www.w3.org/2000/svg" xmlns:xlink="http://www.w3.org/1999/xlink" version="1.1" width="1472" height="1056"><g id="Context Diagram"><g id="Interact with the exposed APIs"><polyline points="848,868 824,868 808.5999999999999,868.74 795.8,870.84 785.31,874.16 776.81,878.52 770,883.76 764.5699999999999,889.73 760.21,896.26 756.6199999999999,903.2 747.3800000000001,924.8 743.79,931.74 739.4300000000001,938.27 734,944.24 727.19,949.48 718.69,953.84 708.2,957.16 695.4,959.26 680,960 656,960" fill="none" stroke-width="1" stroke="#adb3b3" opacity="1"></polyline></g><g id="Interact with the exposed APIs"><rect width="116.29299999999999" height="36.8" x="693.8535" y="895.6" rx="4" ry="4" fill-opacity="0.8" fill="#e5e7e8" stroke-opacity="1" stroke-width="1" stroke="#cfd2d2" opacity="0.8"></rect><g opacity="1" fill="#434647"><text font-family="Lato, Arial, sans-serif" font-size="14" text-anchor="middle" x="752" y="911.418"><tspan dy="0" x="752">Interact with the</tspan></text><text font-family="Lato, Arial, sans-serif" font-size="14" text-anchor="middle" x="752" y="927.418"><tspan dy="0" x="752">exposed APIs</tspan></text></g></g><g id="View Accounts, make payments and transacctions"><polyline points="476,224 476,248 475.45000000000005,257.07 473.82000000000005,265.57 471.16999999999996,273.53 467.55999999999995,280.98 463.04999999999995,287.94 457.67999999999995,294.45 451.51,300.54 437,311.56 428.77,316.55 410.64,325.64 380.05999999999995,337.48 346.76,347.88 277.92999999999995,367.48 255.94000000000005,374.52 235.15999999999997,382.2 216.02999999999997,390.77 207.23000000000002,395.45 191.39999999999998,405.77 184.49,411.46000000000004 178.32,417.55 172.95,424.06 168.44,431.02 164.82999999999998,438.47 162.18,446.43 160.55,454.93 160,464 160,488" fill="none" stroke-width="1" stroke="#adb3b3" opacity="1"></polyline></g><g id="View Accounts, make payments and transacctions"><rect width="136.43900000000002" height="52.8" x="249.79229985009837" y="329.66632461046163" rx="4" ry="4" fill-opacity="0.8" fill="#e5e7e8" stroke-opacity="1" stroke-width="1" stroke="#cfd2d2" opacity="0.8"></rect><g opacity="1" fill="#434647"><text font-family="Lato, Arial, sans-serif" font-size="14" text-anchor="middle" x="318.0117998500984" y="345.4843246104616"><tspan dy="0" x="318.0117998500984">View Accounts,</tspan></text><text font-family="Lato, Arial, sans-serif" font-size="14" text-anchor="middle" x="318.0117998500983" y="361.4843246104616"><tspan dy="0" x="318.0117998500983">make payments and</tspan></text><text font-family="Lato, Arial, sans-serif" font-size="14" text-anchor="middle" x="318.0117998500983" y="377.4843246104616"><tspan dy="0" x="318.0117998500983">transacctions</tspan></text></g></g><g id="Access the Bank's APIs."><polyline points="160,616 160.49,647.97 161.94,655.54 164.31,662.73 167.54000000000002,669.5699999999999 171.61,676.06 182.06,688.0799999999999 188.36,693.65 202.89,703.99 211.03999999999996,708.79 228.89,717.76 248.51999999999998,725.99 269.61,733.62 303.20000000000005,744.26 396.21000000000004,771.2 439.48,786.01 468.28,798.62 485.11,808.01 492.69000000000005,813.05 505.94000000000005,823.92 511.53999999999996,829.78 516.39,835.94 520.46,842.43 523.69,849.27 526.06,856.46 527.51,864.03 528,896" fill="none" stroke-width="1" stroke="#adb3b3" opacity="1"></polyline></g><g id="Access the Bank's APIs."><rect width="123.202" height="36.8" x="282.37881513062064" y="737.6717215312216" rx="4" ry="4" fill-opacity="0.8" fill="#e5e7e8" stroke-opacity="1" stroke-width="1" stroke="#cfd2d2" opacity="0.8"></rect><g opacity="1" fill="#434647"><text font-family="Lato, Arial, sans-serif" font-size="14" text-anchor="middle" x="343.97981513062064" y="753.4897215312216"><tspan dy="0" x="343.97981513062064">Access the Bank's</tspan></text><text font-family="Lato, Arial, sans-serif" font-size="14" text-anchor="middle" x="343.97981513062064" y="769.4897215312216"><tspan dy="0" x="343.97981513062064">APIs.</tspan></text></g></g><g id="Login/Logout Via"><polyline points="616,164 648.14,164.09 673.68,165.36 700.75,168.01 729.1500000000001,171.84 758.6800000000001,176.68 799.45,184.38 979.7,223.35 1051.27,237.03 1089.92,242.84 1126.32,246.64 1151.86,247.91 1184,248" fill="none" stroke-width="1" stroke="#adb3b3" opacity="1"></polyline></g><g id="Login/Logout Via"><rect width="120.325" height="20.8" x="839.8105032494775" y="195.71304541820882" rx="4" ry="4" fill-opacity="0.8" fill="#e5e7e8" stroke-opacity="1" stroke-width="1" stroke="#cfd2d2" opacity="0.8"></rect><g opacity="1" fill="#434647"><text font-family="Lato, Arial, sans-serif" font-size="14" text-anchor="middle" x="899.9730032494775" y="211.5310454182088"><tspan dy="0" x="899.9730032494775">Login/Logout Via</tspan></text></g></g><g id="Login/Logout"><polyline points="1104,868 1134.34,867.67 1146.66,865.06 1152.64,862.81 1164.26,856.56 1169.89,852.58 1180.79,843.02 1196.29,824.96 1210.75,802.88 1224.19,777.28 1232.59,758.52 1240.55,738.57 1255.14,695.75 1268,650 1281.68,590.56 1292.74,530.81 1301.25,473.13 1308.17,409.94 1311.58,357.19 1312,312" fill="none" stroke-width="1" stroke="#adb3b3" opacity="1"></polyline></g><g id="Login/Logout"><rect width="96.539" height="20.8" x="1224.650207674918" y="618.2237263013805" rx="4" ry="4" fill-opacity="0.8" fill="#e5e7e8" stroke-opacity="1" stroke-width="1" stroke="#cfd2d2" opacity="0.8"></rect><g opacity="1" fill="#434647"><text font-family="Lato, Arial, sans-serif" font-size="14" text-anchor="middle" x="1272.9197076749178" y="634.0417263013804"><tspan dy="0" x="1272.9197076749178">Login/Logout</tspan></text></g></g><g id="View Accounts, make payments and transacctions"><polyline points="476,224 476.08000000000004,265.13 477.14,304.42 479.11,330.37 484.1,366.88 486.28,389.75 487.69000000000005,423.90999999999997 488,480" fill="none" stroke-width="1" stroke="#adb3b3" opacity="1"></polyline></g><g id="View Accounts, make payments and transacctions"><rect width="136.43900000000002" height="52.8" x="413.8455463273649" y="325.5909902629446" rx="4" ry="4" fill-opacity="0.8" fill="#e5e7e8" stroke-opacity="1" stroke-width="1" stroke="#cfd2d2" opacity="0.8"></rect><g opacity="1" fill="#434647"><text font-family="Lato, Arial, sans-serif" font-size="14" text-anchor="middle" x="482.06504632736494" y="341.4089902629446"><tspan dy="0" x="482.06504632736494">View Accounts,</tspan></text><text font-family="Lato, Arial, sans-serif" font-size="14" text-anchor="middle" x="482.06504632736494" y="357.4089902629446"><tspan dy="0" x="482.06504632736494">make payments and</tspan></text><text font-family="Lato, Arial, sans-serif" font-size="14" text-anchor="middle" x="482.06504632736494" y="373.4089902629446"><tspan dy="0" x="482.06504632736494">transacctions</tspan></text></g></g><g id="View Accounts, make payments and transacctions"><polyline points="476,224 476,248 476.54999999999995,257.06 478.17999999999995,265.52 480.83000000000004,273.40999999999997 484.44000000000005,280.76 488.95000000000005,287.62 494.32000000000005,293.99 500.49,299.92 507.4,305.44 523.23,315.36 532.03,319.82 551.16,327.89 571.94,335.05 593.93,341.53999999999996 662.76,359.4 696.06,368.95 726.6400000000001,380.01 744.77,388.64 753,393.43 767.51,404.08000000000004 773.6800000000001,410.01 779.05,416.38 783.56,423.24 787.1700000000001,430.59000000000003 789.8199999999999,438.48 791.45,446.94 792,456 792,480" fill="none" stroke-width="1" stroke="#adb3b3" opacity="1"></polyline></g><g id="View Accounts, make payments and transacctions"><rect width="136.43900000000002" height="52.8" x="565.7885449157772" y="325.5394462036289" rx="4" ry="4" fill-opacity="0.8" fill="#e5e7e8" stroke-opacity="1" stroke-width="1" stroke="#cfd2d2" opacity="0.8"></rect><g opacity="1" fill="#434647"><text font-family="Lato, Arial, sans-serif" font-size="14" text-anchor="middle" x="634.0080449157772" y="341.3574462036289"><tspan dy="0" x="634.0080449157772">View Accounts,</tspan></text><text font-family="Lato, Arial, sans-serif" font-size="14" text-anchor="middle" x="634.0080449157772" y="357.3574462036289"><tspan dy="0" x="634.0080449157772">make payments and</tspan></text><text font-family="Lato, Arial, sans-serif" font-size="14" text-anchor="middle" x="634.0080449157772" y="373.3574462036289"><tspan dy="0" x="634.0080449157772">transacctions</tspan></text></g></g><g id="Access the Bank's APIs."><polyline points="488,608 488.73,660.1 490.74,683.56 493.80999999999995,703.26 499.82000000000005,727.69 513.92,769.09 518.33,783.92 523.84,810.18 527.27,843.9 528,896" fill="none" stroke-width="1" stroke="#adb3b3" opacity="1"></polyline></g><g id="Access the Bank's APIs."><rect width="123.202" height="36.8" x="446.4869313907175" y="733.5660538706173" rx="4" ry="4" fill-opacity="0.8" fill="#e5e7e8" stroke-opacity="1" stroke-width="1" stroke="#cfd2d2" opacity="0.8"></rect><g opacity="1" fill="#434647"><text font-family="Lato, Arial, sans-serif" font-size="14" text-anchor="middle" x="508.0879313907175" y="749.3840538706173"><tspan dy="0" x="508.0879313907175">Access the Bank's</tspan></text><text font-family="Lato, Arial, sans-serif" font-size="14" text-anchor="middle" x="508.0879313907175" y="765.3840538706173"><tspan dy="0" x="508.0879313907175">APIs.</tspan></text></g></g><g id="Access the Bank's APIs."><polyline points="792,608 791.46,641.81 789.8800000000001,651.06 787.3199999999999,659.76 783.8399999999999,667.97 779.49,675.7 774.3299999999999,683 761.8199999999999,696.38 746.77,708.38 738.44,713.94 720.45,724.34 691,738.6 618.93,770.02 590.35,784.75 573.23,795.62 565.41,801.46 551.57,814.12 545.67,821 540.51,828.3 536.16,836.03 532.68,844.24 530.12,852.94 528.54,862.19 528,872 528,896" fill="none" stroke-width="1" stroke="#adb3b3" opacity="1"></polyline></g><g id="Access the Bank's APIs."><rect width="123.202" height="36.8" x="598.4326236645212" y="733.7002573117906" rx="4" ry="4" fill-opacity="0.8" fill="#e5e7e8" stroke-opacity="1" stroke-width="1" stroke="#cfd2d2" opacity="0.8"></rect><g opacity="1" fill="#434647"><text font-family="Lato, Arial, sans-serif" font-size="14" text-anchor="middle" x="660.0336236645212" y="749.5182573117905"><tspan dy="0" x="660.0336236645212">Access the Bank's</tspan></text><text font-family="Lato, Arial, sans-serif" font-size="14" text-anchor="middle" x="660.0336236645212" y="765.5182573117905"><tspan dy="0" x="660.0336236645212">APIs.</tspan></text></g></g><a href="https://app.icepanel.io/landscapes/DhqH7fBcZoMksqF6Ke6z/versions/latest/model/objects?object=ssh4umcndps&amp;focus=ssh4umcndps" id="Banking Customer" target="_blank"><rect width="56" height="56" rx="8" ry="8" fill-opacity="0.8" fill="#f5f6f6" stroke-opacity="1" stroke-width="1" stroke="#adb3b3" opacity="1" x="448" y="32"></rect><rect width="280" height="128" rx="8" ry="8" fill-opacity="0.8" fill="#f5f6f6" stroke-opacity="1" stroke-width="1" stroke="#adb3b3" opacity="1" x="336" y="96"></rect><path d="M476 61.714285714285715C479.7875 61.714285714285715 482.8571428571429 58.644642857142856 482.8571428571429 54.85714285714286C482.8571428571429 51.06964285714285 479.7875 48 476 48C472.2125 48 469.1428571428571 51.06964285714285 469.1428571428571 54.85714285714286C469.1428571428571 58.644642857142856 472.2125 61.714285714285715 476 61.714285714285715ZM480.8 63.42857142857143L479.90535714285716 63.42857142857143C478.71607142857147 63.974999999999994 477.3928571428571 64.28571428571428 476 64.28571428571428C474.6071428571429 64.28571428571428 473.2892857142857 63.974999999999994 472.09464285714284 63.42857142857143L471.2 63.42857142857143C467.225 63.42857142857143 464 66.65357142857142 464 70.62857142857143L464 72.85714285714286C464 74.27678571428571 465.1517857142857 75.42857142857143 466.57142857142856 75.42857142857143L485.42857142857144 75.42857142857143C486.8482142857143 75.42857142857143 488 74.27678571428571 488 72.85714285714286L488 70.62857142857143C488 66.65357142857142 484.775 63.42857142857143 480.8 63.42857142857143Z " fill="#0c0d0d" opacity="1"></path><text font-family="Lato, Arial, sans-serif" font-size="24" text-anchor="middle" fill="#0c0d0d" opacity="1" x="476" y="145.288"><tspan dy="0" x="476">Banking Customer</tspan></text><g opacity="1"><text font-family="Lato, Arial, sans-serif" font-size="12" text-anchor="middle" fill="#595f61" x="475.99999999999994" y="180.644"><tspan dy="0" x="475.99999999999994">Customers of the bank with active products</tspan></text><text font-family="Lato, Arial, sans-serif" font-size="12" text-anchor="middle" fill="#595f61" x="476" y="194.644"><tspan dy="0" x="476">interact with Web or Mobile Banking Systems</tspan></text></g><g id="[Actor]" opacity="1"><text font-family="Lato, Arial, sans-serif" font-size="12" text-anchor="middle" fill="#595f61" x="476" y="212.644"><tspan dy="0" x="476">[Actor]</tspan></text></g></a><a href="https://app.icepanel.io/landscapes/DhqH7fBcZoMksqF6Ke6z/versions/latest/model/objects?object=7yjek5cgcvd&amp;focus=7yjek5cgcvd" id="Web Banking System" target="_blank"><rect width="256" height="128" rx="8" ry="8" fill-opacity="0.8" fill="#f5f6f6" stroke-opacity="1" stroke-width="1" stroke="#adb3b3" opacity="1" x="32" y="488"></rect><text font-family="Lato, Arial, sans-serif" font-size="24" text-anchor="middle" fill="#0c0d0d" opacity="1" x="160" y="539.288"><tspan dy="0" x="160">Web Banking System</tspan></text><g opacity="1"><text font-family="Lato, Arial, sans-serif" font-size="10" text-anchor="middle" fill="#595f61" x="160" y="559.8699999999999"><tspan dy="0" x="160">Allow users to view information about their banking</tspan></text><text font-family="Lato, Arial, sans-serif" font-size="10" text-anchor="middle" fill="#595f61" x="160" y="571.8699999999999"><tspan dy="0" x="160">products, make transactions and payments, and</tspan></text><text font-family="Lato, Arial, sans-serif" font-size="10" text-anchor="middle" fill="#595f61" x="160" y="583.8699999999999"><tspan dy="0" x="160">acquire new products.</tspan></text></g><g id="[System]" opacity="1"><text font-family="Lato, Arial, sans-serif" font-size="12" text-anchor="middle" fill="#595f61" x="159.99999999999997" y="604.644"><tspan dy="0" x="159.99999999999997">[System]</tspan></text></g></a><a href="https://app.icepanel.io/landscapes/DhqH7fBcZoMksqF6Ke6z/versions/latest/model/objects?object=jsj38oec4oc&amp;focus=jsj38oec4oc" id="Merchants" target="_blank"><rect width="56" height="56" rx="8" ry="8" fill-opacity="0.8" fill="#f5f6f6" stroke-opacity="1" stroke-width="1" stroke="#adb3b3" opacity="1" x="948" y="752"></rect><rect width="256" height="96" rx="8" ry="8" fill-opacity="0.8" fill="#f5f6f6" stroke-opacity="1" stroke-width="1" stroke="#adb3b3" opacity="1" x="848" y="816"></rect><path d="M976 781.7142857142857C979.7875 781.7142857142857 982.8571428571429 778.6446428571428 982.8571428571429 774.8571428571429C982.8571428571429 771.0696428571429 979.7875 768 976 768C972.2125 768 969.1428571428571 771.0696428571429 969.1428571428571 774.8571428571429C969.1428571428571 778.6446428571428 972.2125 781.7142857142857 976 781.7142857142857ZM980.8 783.4285714285714L979.9053571428572 783.4285714285714C978.7160714285715 783.975 977.3928571428571 784.2857142857143 976 784.2857142857143C974.6071428571429 784.2857142857143 973.2892857142857 783.975 972.0946428571428 783.4285714285714L971.2 783.4285714285714C967.225 783.4285714285714 964 786.6535714285715 964 790.6285714285714L964 792.8571428571429C964 794.2767857142857 965.1517857142857 795.4285714285714 966.5714285714286 795.4285714285714L985.4285714285714 795.4285714285714C986.8482142857142 795.4285714285714 988 794.2767857142857 988 792.8571428571429L988 790.6285714285714C988 786.6535714285715 984.775 783.4285714285714 980.8 783.4285714285714Z " fill="#0c0d0d" opacity="1"></path><text font-family="Lato, Arial, sans-serif" font-size="24" text-anchor="middle" fill="#0c0d0d" opacity="1" x="976.0000000000001" y="854.6213333333334"><tspan dy="0" x="976.0000000000001">Merchants</tspan></text><g opacity="1"><text font-family="Lato, Arial, sans-serif" font-size="10" text-anchor="middle" fill="#595f61" x="976" y="874.2033333333335"><tspan dy="0" x="976">Merchants connecting to the APIs to implement</tspan></text><text font-family="Lato, Arial, sans-serif" font-size="10" text-anchor="middle" fill="#595f61" x="976" y="886.2033333333335"><tspan dy="0" x="976">OpenBanking and Open Finance</tspan></text></g><g id="[Actor]" opacity="1"><text font-family="Lato, Arial, sans-serif" font-size="12" text-anchor="middle" fill="#595f61" x="976" y="900.644"><tspan dy="0" x="976">[Actor]</tspan></text></g></a><a href="https://app.icepanel.io/landscapes/DhqH7fBcZoMksqF6Ke6z/versions/latest/model/objects?object=jixz9pqjb5e&amp;focus=jixz9pqjb5e" id="BIAN Service Platform" target="_blank"><rect width="256" height="128" rx="8" ry="8" fill-opacity="0.8" fill="#f5f6f6" stroke-opacity="1" stroke-width="1" stroke="#adb3b3" opacity="1" x="400" y="896"></rect><text font-family="Lato, Arial, sans-serif" font-size="23" text-anchor="middle" fill="#0c0d0d" opacity="1" x="528" y="946.901"><tspan dy="0" x="528">BIAN Service Platform</tspan></text><g opacity="1"><text font-family="Lato, Arial, sans-serif" font-size="11" text-anchor="middle" fill="#595f61" x="528" y="973.757"><tspan dy="0" x="528">BackEnd systems manage products, customers,</tspan></text><text font-family="Lato, Arial, sans-serif" font-size="11" text-anchor="middle" fill="#595f61" x="528" y="986.757"><tspan dy="0" x="528">risks, process payments, and prevent fraud.</tspan></text></g><g id="[System]" opacity="1"><text font-family="Lato, Arial, sans-serif" font-size="12" text-anchor="middle" fill="#595f61" x="528" y="1012.644"><tspan dy="0" x="528">[System]</tspan></text></g></a><a href="https://app.icepanel.io/landscapes/DhqH7fBcZoMksqF6Ke6z/versions/latest/model/objects?object=96fgetq2k8l&amp;focus=96fgetq2k8l" id="CIAM" target="_blank"><rect width="256" height="128" rx="8" ry="8" fill-opacity="0.8" fill="#f5f6f6" stroke-opacity="1" stroke-width="1" stroke="#adb3b3" opacity="1" x="1184" y="184"></rect><text font-family="Lato, Arial, sans-serif" font-size="24" text-anchor="middle" fill="#0c0d0d" opacity="1" x="1312" y="235.28799999999998"><tspan dy="0" x="1312">CIAM</tspan></text><g opacity="1"><text font-family="Lato, Arial, sans-serif" font-size="10" text-anchor="middle" fill="#595f61" x="1312" y="255.87"><tspan dy="0" x="1312">The CIAM system is responsible for authentication,</tspan></text><text font-family="Lato, Arial, sans-serif" font-size="10" text-anchor="middle" fill="#595f61" x="1312.0000000000002" y="267.87"><tspan dy="0" x="1312.0000000000002">authorization, and identity management of users and</tspan></text><text font-family="Lato, Arial, sans-serif" font-size="10" text-anchor="middle" fill="#595f61" x="1311.9999999999998" y="279.87"><tspan dy="0" x="1311.9999999999998">merchants B2C B2B</tspan></text></g><g id="[System]" opacity="1"><text font-family="Lato, Arial, sans-serif" font-size="12" text-anchor="middle" fill="#595f61" x="1312.0000000000002" y="300.64399999999995"><tspan dy="0" x="1312.0000000000002">[System]</tspan></text></g></a><a href="https://app.icepanel.io/landscapes/DhqH7fBcZoMksqF6Ke6z/versions/latest/model/objects?object=fpa1hi9ciq&amp;focus=fpa1hi9ciq" id="App Banking System" target="_blank"><rect width="256" height="128" rx="8" ry="8" fill-opacity="0.8" fill="#f5f6f6" stroke-opacity="1" stroke-width="1" stroke="#adb3b3" opacity="1" x="360" y="480"></rect><text font-family="Lato, Arial, sans-serif" font-size="24" text-anchor="middle" fill="#0c0d0d" opacity="1" x="488" y="531.288"><tspan dy="0" x="488">App Banking System</tspan></text><g opacity="1"><text font-family="Lato, Arial, sans-serif" font-size="10" text-anchor="middle" fill="#595f61" x="488" y="551.8699999999999"><tspan dy="0" x="488">Allow users to view information about their banking</tspan></text><text font-family="Lato, Arial, sans-serif" font-size="10" text-anchor="middle" fill="#595f61" x="487.99999999999994" y="563.8699999999999"><tspan dy="0" x="487.99999999999994">products, make transactions and payments, and</tspan></text><text font-family="Lato, Arial, sans-serif" font-size="10" text-anchor="middle" fill="#595f61" x="488" y="575.8699999999999"><tspan dy="0" x="488">acquire new products.</tspan></text></g><g id="[System]" opacity="1"><text font-family="Lato, Arial, sans-serif" font-size="12" text-anchor="middle" fill="#595f61" x="488" y="596.644"><tspan dy="0" x="488">[System]</tspan></text></g></a><a href="https://app.icepanel.io/landscapes/DhqH7fBcZoMksqF6Ke6z/versions/latest/model/objects?object=msnx33hwcb9&amp;focus=msnx33hwcb9" id="ChatBot Banking System" target="_blank"><rect width="256" height="128" rx="8" ry="8" fill-opacity="0.8" fill="#f5f6f6" stroke-opacity="1" stroke-width="1" stroke="#adb3b3" opacity="1" x="664" y="480"></rect><text font-family="Lato, Arial, sans-serif" font-size="21" text-anchor="middle" fill="#0c0d0d" opacity="1" x="792" y="530.127"><tspan dy="0" x="792">ChatBot Banking System</tspan></text><g opacity="1"><text font-family="Lato, Arial, sans-serif" font-size="10" text-anchor="middle" fill="#595f61" x="792" y="551.8699999999999"><tspan dy="0" x="792">Allow users to view information about their banking</tspan></text><text font-family="Lato, Arial, sans-serif" font-size="10" text-anchor="middle" fill="#595f61" x="792.0000000000001" y="563.8699999999999"><tspan dy="0" x="792.0000000000001">products, make transactions and payments, and</tspan></text><text font-family="Lato, Arial, sans-serif" font-size="10" text-anchor="middle" fill="#595f61" x="791.9999999999999" y="575.8699999999999"><tspan dy="0" x="791.9999999999999">acquire new products.</tspan></text></g><g id="[System]" opacity="1"><text font-family="Lato, Arial, sans-serif" font-size="12" text-anchor="middle" fill="#595f61" x="792" y="596.644"><tspan dy="0" x="792">[System]</tspan></text></g></a><g id="Interact with the exposed APIs"><polygon points="600,952 592,968 608,968 600,952" fill="#adb3b3" opacity="1" transform="matrix(-1.8369701987210297e-16,-1,1,-1.8369701987210297e-16,-295.9999999999999,1560)"></polygon><circle r="4" fill="#adb3b3" opacity="1" cx="848" cy="868"></circle></g><g id="View Accounts, make payments and transacctions"><polygon points="96,408 88,424 104,424 96,408" fill="#adb3b3" opacity="1" transform="matrix(-1,1.2246467991473532e-16,-1.2246467991473532e-16,-1,256.00000000000006,896)"></polygon><circle r="4" fill="#adb3b3" opacity="1" cx="476" cy="224"></circle></g><g id="Access the Bank's APIs."><polygon points="464.37155960091366,815.5142952220853 456.37155960091366,831.5142952220853 472.37155960091366,831.5142952220853 464.37155960091366,815.5142952220853" fill="#adb3b3" opacity="1" transform="matrix(-0.9998825642342319,0.015325069017040635,-0.015325069017040635,-0.9998825642342319,1004.8148386298726,1704.3019984758967)"></polygon><circle r="4" fill="#adb3b3" opacity="1" cx="160" cy="616"></circle></g><g id="Login/Logout Via"><polygon points="1175.9102982899967,175.8881159442795 1167.9102982899967,191.8881159442795 1183.9102982899967,191.8881159442795 1175.9102982899967,175.8881159442795" fill="#adb3b3" opacity="1" transform="matrix(-0.002800237932151205,0.9999960793260758,-0.9999960793260758,-0.002800237932151205,1363.1802549664087,-927.4131593550715)"></polygon><circle r="4" fill="#adb3b3" opacity="1" cx="616" cy="164"></circle></g><g id="Login/Logout"><polygon points="1312.2216665727508,311.70087442188117 1304.2216665727508,327.70087442188117 1320.2216665727508,327.70087442188117 1312.2216665727508,311.70087442188117" fill="#adb3b3" opacity="1" transform="matrix(0.9999568127284145,0.009293690226732303,-0.009293690226732303,0.9999568127284145,2.731856071022321,-11.882794589497621)"></polygon><circle r="4" fill="#adb3b3" opacity="1" cx="1104" cy="868"></circle></g><g id="View Accounts, make payments and transacctions"><polygon points="424.13313066197304,399.82375498443014 416.13313066197304,415.82375498443014 432.13313066197304,415.82375498443014 424.13313066197304,399.82375498443014" fill="#adb3b3" opacity="1" transform="matrix(-0.9999847274145848,0.005526747468327709,-0.005526747468327709,-0.9999847274145848,914.336377978145,877.4735719358612)"></polygon><circle r="4" fill="#adb3b3" opacity="1" cx="476" cy="224"></circle></g><g id="View Accounts, make payments and transacctions"><polygon points="728.0000000000001,400 720.0000000000001,416 736.0000000000001,416 728.0000000000001,400" fill="#adb3b3" opacity="1" transform="matrix(-1,1.2246467991473532e-16,-1.2246467991473532e-16,-1,1520,879.9999999999999)"></polygon><circle r="4" fill="#adb3b3" opacity="1" cx="476" cy="224"></circle></g><g id="Access the Bank's APIs."><polygon points="464.3393840860842,815.5556013576273 456.3393840860842,831.5556013576273 472.3393840860842,831.5556013576273 464.3393840860842,815.5556013576273" fill="#adb3b3" opacity="1" transform="matrix(-0.9999018531563758,0.014010141128679241,-0.014010141128679241,-0.9999018531563758,1003.7198597144711,1704.970096846904)"></polygon><circle r="4" fill="#adb3b3" opacity="1" cx="488" cy="608"></circle></g><g id="Access the Bank's APIs."><polygon points="464.0000000000001,816 456.0000000000001,832 472.0000000000001,832 464.0000000000001,816" fill="#adb3b3" opacity="1" transform="matrix(-1,1.2246467991473532e-16,-1.2246467991473532e-16,-1,992.0000000000001,1712)"></polygon><circle r="4" fill="#adb3b3" opacity="1" cx="792" cy="608"></circle></g></g></svg>